{"title":"Zanjeer (2013 ) New HD Scam X264 - [1CD] - Team IcTv Hindi","uid":8891092,"size":733424038,"categoryP":"video","categoryS":"movies","magnet":"?xt=urn:btih:6533f1f63baebf5f1fff5ff25074b449f95a78b9&amp;dn=Zanjeer+%282013+%29+New+HD+Scam+X264+-+%5B1CD%5D+-+Team+IcTv+Hindi&amp;tr=udp%3A%2F%2Ftracker.openbittorrent.com%3A80&amp;tr=udp%3A%2F%2Fopen.demonii.com%3A1337&amp;tr=udp%3A%2F%2Ftracker.coppersurfer.tk%3A6969&amp;tr=udp%3A%2F%2Fexodus.desync.com%3A6969","seeders":1,"leechers":0,"uploader":"SJonam","files":1,"time":1378584929,"description":" &lt;a href=&quot;http://s18.postimg.org/q1xcnecvd/9999999999.jpghttp://img545.imageshack.us/img545/7808/nthh.jpg&quot; rel=&quot;nofollow&quot; target=&quot;_NEW&quot;&gt;http://s18.postimg.org/q1xcnecvd/9999999999.jpghttp://img545.imageshack.us/img545/7808/nthh.jpg&lt;/a&gt; &lt;a href=&quot;\nhttp://desibbrg.org/images/92203651953267567201.png&quot; rel=&quot;nofollow&quot; target=&quot;_NEW&quot;&gt;\nhttp://desibbrg.org/images/92203651953267567201.png&lt;/a&gt; &lt;a href=&quot;\nhttp://desibbrg.org/images/48095858020181618093.png&quot; rel=&quot;nofollow&quot; target=&quot;_NEW&quot;&gt;\nhttp://desibbrg.org/images/48095858020181618093.png&lt;/a&gt; &lt;a href=&quot;\nhttp://desibbrg.org/images/98922624891987552839.png&quot; rel=&quot;nofollow&quot; target=&quot;_NEW&quot;&gt;\nhttp://desibbrg.org/images/98922624891987552839.png&lt;/a&gt; &lt;a href=&quot;\nhttp://desibbrg.org/images/65439911958099808977.png&quot; rel=&quot;nofollow&quot; target=&quot;_NEW&quot;&gt;\nhttp://desibbrg.org/images/65439911958099808977.png&lt;/a&gt; &lt;a href=&quot;\nhttp://desibbrg.org/images/62866199068214932826.png&quot; rel=&quot;nofollow&quot; target=&quot;_NEW&quot;&gt;\nhttp://desibbrg.org/images/62866199068214932826.png&lt;/a&gt;\n\nMedia Info - \nGeneral\nComplete name : Zanjeer (2013) NEW ****** -X264 - Team ICTv Xclusive.avi\nFormat : AVI\nFormat/Info : Audio Video Interleave\nFile size : 699 MiB\nDuration : 1h 48mn\nOverall bit rate : 898 Kbps\n\nVideo\nID : 0\nFormat : MPEG-4 Visual\nFormat profile : Advanced Simple@L5\nFormat settings, BVOP : 2\nFormat settings, QPel : No\nFormat settings, GMC : No warppoints\nFormat settings, Matrix : Default (H.263)\nCodec ID : XVID\nCodec ID/Hint : XviD\nDuration : 1h 48mn\nBit rate : 812 Kbps\nWidth : 640 pixels\nHeight : 256 pixels\nDisplay aspect ratio : 2.500\nFrame rate : 25.000 fps\nColor space : YUV\nChroma subsampling : 4:2:0\nBit depth : 8 bits\nScan type : Progressive\nCompression mode : Lossy\nBits/(Pixel*Frame) : 0.198\nStream size : 632 MiB (90%)\nWriting library : XviD 1.2.1 (UTC 2008-12-04)\n\nAudio\nID : 1\nFormat : MPEG Audio\nFormat version : Version 1\nFormat profile : Layer 3\nMode : Joint stereo\nMode extension : MS Stereo\nCodec ID : 55\nCodec ID/Hint : MP3\nDuration : 1h 48mn\nBit rate mode : Constant\nBit rate : 80.0 Kbps\nChannel(s) : 2 channels\nSampling rate : 32.0 KHz\nCompression mode : Lossy\nStream size : 62.3 MiB (9%)\nAlignment : Aligned on interleaves\nInterleave, duration : 160 ms (4.00 video frames)\nInterleave, preload duration : 216 ms\nTitle : ZANJEER Tc0 L2 2ch 48 128 DELAY 0ms\nWriting library : LAME3.99r\nEncoding settings : -m j -V 4 -q 2 -lowpass 13.5 -b 80\n\nSample - http://www.sendspace.com/file/k5jgm0\n\nRipper : Rulez\n\nSeeding 24x7... Extreme Seeding...\n\n\nEnjoy!\n","torrent":{"xt":"urn:btih:6533f1f63baebf5f1fff5ff25074b449f95a78b9","amp;dn":"Zanjeer+%282013+%29+New+HD+Scam+X264+-+%5B1CD%5D+-+Team+IcTv+Hindi","amp;tr":["udp%3A%2F%2Ftracker.openbittorrent.com%3A80","udp%3A%2F%2Fopen.demonii.com%3A1337","udp%3A%2F%2Ftracker.coppersurfer.tk%3A6969","udp%3A%2F%2Fexodus.desync.com%3A6969"],"infoHash":"6533f1f63baebf5f1fff5ff25074b449f95a78b9","infoHashBuffer":{"type":"Buffer","data":[101,51,241,246,59,174,191,95,31,255,95,242,80,116,180,73,249,90,120,185]},"announce":[],"urlList":[]}}